<svg xmlns="http://www.w3.org/2000/svg" viewBox="0 0 243.01 91.81"><defs><style>.cls-1{fill:#071534;}.cls-2{fill:#0071bc;}.cls-3{font-size:36px;fill:#a165aa;font-family:BaskOldFace, Baskerville Old Face;}</style></defs><g id="Layer_2" data-name="Layer 2"><g id="Layer_1-2" data-name="Layer 1"><path class="cls-1" d="M117.49,90.71c86-5.11,109.12-9.46,51.62-9.73S64.82,55.28,64.6,24.17,41.26-2.58,13,33.9,31.48,95.82,117.49,90.71Z"/><path class="cls-2" d="M117.51,90.74c7.46-.46,14.88-1,21.86-1.61s13.52-1.22,19.41-1.88c11.81-1.2,21-2.38,28.39-3.41,13.57-1.59,19.5-2.67,20.92-3.27.3-.15-3.63-.07-10.24.11-7.11.42-16.76.64-27.59.65-21.92-.1-46.67-2.54-70.28-9.2A95.31,95.31,0,0,1,85.08,65,57.25,57.25,0,0,1,73.44,54.78a47.94,47.94,0,0,1-7-14.06,59.65,59.65,0,0,1-1.52-8.26c-.29-2.85-.38-5.68-.41-8.46s.05-5.41.15-7.81,0-4.58,0-6.43c-.31-3.7-1-6.2-1.94-7.85-3.18-2.79-7.6-2.3-12.83,0C36.16,8.07,22.4,19.69,11.55,33.47A85.85,85.85,0,0,0,4.5,44,42.84,42.84,0,0,0,.39,54.72,23.19,23.19,0,0,0,6,74.65c6.48,5.72,17.24,10.72,34.8,14.14A271.47,271.47,0,0,0,74.21,91.7c6.55.17,13.66.14,20.92,0S110,91.17,117.51,90.74Zm-.05-.06c-7.44.41-14.92.75-22.18.91s-14.19.14-20.64,0a254.15,254.15,0,0,1-32.77-3c-16.93-3.48-27.11-8.47-33-14.13A23.5,23.5,0,0,1,3.92,55,49.82,49.82,0,0,1,7.79,44.58,80.81,80.81,0,0,1,14.4,34.33a114.08,114.08,0,0,1,8.44-9.69c3-3.07,6.16-6,9.39-8.69A80.19,80.19,0,0,1,50.59,3.68a22.13,22.13,0,0,1,7.3-2.14,6.24,6.24,0,0,1,4.9,1.9c1,1.54,1.6,3.89,1.94,7.39,0,1.75.07,3.84.06,6.09s-.07,4.82-.06,7.42.18,5.38.47,8.13a59.28,59.28,0,0,0,1.52,8,47.35,47.35,0,0,0,6.91,13.88c7.06,7.71,16.17,13.28,26.22,17.27a183.38,183.38,0,0,0,34.22,7.24c5.93.6,11.77,1,17.45,1.32s11.17.37,16.45.42,10.13,0,14.67-.08,8.33-.18,11.85-.28c6.58-.06,10.36,0,10.64.19-.91.66-6.25,1.77-19.17,3.36-7,1-16.16,2.2-27.73,3.38-5.79.66-12.32,1.28-19.14,1.88S124.86,90.21,117.46,90.68Z"/><text class="cls-3" transform="translate(28.08 70.62)">EK Design</text></g></g></svg>