<svg xmlns="http://www.w3.org/2000/svg" width="60" height="40" viewBox="0 0 60 40">
  <g id="Icon_ionic-ios-mail" data-name="Icon ionic-ios-mail" transform="translate(-3.375 -7.875)">
    <path id="Path_1" data-name="Path 1" d="M62.885,10.4,47.365,25.836a.268.268,0,0,0,0,.394l10.861,11.3a1.8,1.8,0,0,1,0,2.591,1.913,1.913,0,0,1-2.654,0L44.755,28.864a.3.3,0,0,0-.418,0L41.7,31.484a11.752,11.752,0,0,1-8.279,3.408,11.986,11.986,0,0,1-8.452-3.507l-2.538-2.521a.3.3,0,0,0-.418,0L11.192,40.117a1.913,1.913,0,0,1-2.654,0,1.8,1.8,0,0,1,0-2.591L19.4,26.231a.3.3,0,0,0,0-.394L3.865,10.4a.285.285,0,0,0-.49.2V41.483A4.575,4.575,0,0,0,7.99,45.99H58.76a4.575,4.575,0,0,0,4.615-4.507V10.6A.29.29,0,0,0,62.885,10.4Z" transform="translate(0 1.885)" fill="#09284b"/>
    <path id="Path_2" data-name="Path 2" d="M32.716,30.7A8.608,8.608,0,0,0,38.4,28.655L61.222,8.748a5.063,5.063,0,0,0-2.88-.873H7.105a5.029,5.029,0,0,0-2.88.873L27.044,28.655A8.607,8.607,0,0,0,32.716,30.7Z" transform="translate(0.658 0)" fill="#09284b"/>
  </g>
</svg>
